<?xml version="1.0" standalone="no"?>
<!DOCTYPE svg PUBLIC "-//W3C//DTD SVG 20010904//EN"
 "http://www.w3.org/TR/2001/REC-SVG-20010904/DTD/svg10.dtd">
<svg version="1.0" xmlns="http://www.w3.org/2000/svg"
 width="512.000000pt" height="512.000000pt" viewBox="0 0 512.000000 512.000000"
 preserveAspectRatio="xMidYMid meet">

<g transform="translate(0.000000,512.000000) scale(0.100000,-0.100000)"
fill="#000000" stroke="none">
<path d="M1809 2827 c-97 -36 -184 -121 -218 -213 -19 -49 -22 -74 -19 -144 3
-73 9 -94 38 -148 133 -250 487 -250 620 0 29 54 35 75 38 148 3 70 0 95 -19
145 -27 72 -97 150 -171 190 -45 25 -66 30 -143 32 -58 2 -103 -2 -126 -10z"/>
<path d="M3089 2827 c-97 -36 -184 -121 -218 -213 -19 -49 -22 -74 -19 -144 3
-73 9 -94 38 -148 133 -250 487 -250 620 0 29 54 35 75 38 148 3 70 0 95 -19
145 -27 72 -97 150 -171 190 -45 25 -66 30 -143 32 -58 2 -103 -2 -126 -10z"/>
<path d="M2060 1594 c-57 -24 -80 -105 -62 -228 39 -268 299 -506 557 -508
142 -2 269 56 390 177 94 94 148 188 171 297 18 87 12 180 -16 226 -27 44 -67
49 -251 28 -171 -19 -400 -22 -524 -6 -112 14 -247 21 -265 14z m790 -246 c0
-94 -13 -137 -50 -173 -24 -23 -41 -29 -87 -32 -111 -8 -153 45 -153 192 l0
85 145 0 145 0 0 -72z"/>
</g>
</svg>
